# xmcd
#
# Track frame offsets:
#	150
#	15077
#	31944
#	55877
#	71667
#	85993
#	106428
#	122762
#	138210
#	157524
#	177432
#	193873
#	208536
#	223343
#	242341
#
# Disc length: 3447 seconds
# Revision: 0
# Processed by: cddbd v1.5.2PL0 Copyright (c) Steve Scherf et al.
# Submitted via: dBpowerAMP V12.0
#
DISCID=c60d750f
DTITLE=Omar Dykes - Runnin' With The Wolf
DYEAR=2013
DGENRE=Blues
TTITLE0=Runnin' With The Wolf
TTITLE1=Killin' Floor
TTITLE2=The Red Rooster
TTITLE3=Howlin' For my Baby
TTITLE4=Spoonful
TTITLE5=Ooh Baby Hold me
TTITLE6=Riding in The Moonlight
TTITLE7=Who's Been Talking
TTITLE8=Back Door Man
TTITLE9=Worried All The Time
TTITLE10=Smokestack Lightning
TTITLE11=Do The do
TTITLE12=I'm Leavin' You
TTITLE13=Tell me What I've Done
TTITLE14=Wang Dang Doodle
EXTD=
EXTT0=
EXTT1=
EXTT2=
EXTT3=
EXTT4=
EXTT5=
EXTT6=
EXTT7=
EXTT8=
EXTT9=
EXTT10=
EXTT11=
EXTT12=
EXTT13=
EXTT14=
PLAYORDER=
